<?xml version="1.0" encoding="UTF-8" standalone="no"?>
<svg
   xmlns:dc="http://purl.org/dc/elements/1.1/"
   xmlns:cc="http://creativecommons.org/ns#"
   xmlns:rdf="http://www.w3.org/1999/02/22-rdf-syntax-ns#"
   xmlns:svg="http://www.w3.org/2000/svg"
   xmlns="http://www.w3.org/2000/svg"
   viewBox="0 0 758.75 983.75"
   height="983.75"
   width="758.75"
   xml:space="preserve"
   version="1.1"
   id="svg2"><metadata
     id="metadata8"><rdf:RDF><cc:Work
         rdf:about=""><dc:format>image/svg+xml</dc:format><dc:type
           rdf:resource="http://purl.org/dc/dcmitype/StillImage" /></cc:Work></rdf:RDF></metadata><defs
     id="defs6" /><g
     transform="matrix(1.25,0,0,-1.25,0,983.75)"
     id="g10"><g
       transform="scale(0.1,0.1)"
       id="g12"><path
         id="path14"
         style="fill:#ffffff;fill-opacity:1;fill-rule:nonzero;stroke:none"
         d="m 0,0 9070,0 0,8030 L 0,8030 0,0 Z" /><path
         id="path16"
         style="fill:#f3b0a9;fill-opacity:1;fill-rule:nonzero;stroke:none"
         d="m 1100,6320 3600,0 0,1440 -3600,0 0,-1440 z" /><path
         id="path18"
         style="fill:none;stroke:#000000;stroke-width:10;stroke-linecap:round;stroke-linejoin:round;stroke-miterlimit:10;stroke-dasharray:none;stroke-opacity:1"
         d="m 1105,6315 3600,0 0,1440 -3600,0 0,-1440 z" /><g
         transform="scale(10,10)"
         id="g20"><text
           id="text22"
           style="font-variant:normal;font-weight:bold;font-size:15px;font-family:Helvetica;-inkscape-font-specification:Helvetica-Bold;writing-mode:lr-tb;fill:#000000;fill-opacity:1;fill-rule:nonzero;stroke:none"
           transform="matrix(1,0,0,-1,203.182,734.5)"><tspan
             id="tspan24"
             y="0"
             x="0 9.1626072 15 24.162607 33.325214 38.320213 46.66251 55.825119 64.987724 69.982727 73.600891 84.433411 93.596016 102.75862 111.92123 116.08871 124.43102 130.2684 138.6107 148.61569 152.78319 161.12547 165.29297">Frontend: AngularJS 1.4</tspan></text>
<text
           id="text26"
           style="font-variant:normal;font-weight:normal;font-size:15px;font-family:Helvetica;-inkscape-font-specification:Helvetica;writing-mode:lr-tb;fill:#000000;fill-opacity:1;fill-rule:nonzero;stroke:none"
           transform="matrix(1,0,0,-1,193.1257,698.5)"><tspan
             id="tspan28"
             y="0"
             x="0 10.832515 19.17481 27.517105 35.859398 39.191914 47.53421 55.876503 60.043991 68.386284 76.728577 80.896065 85.063553 93.405846 101.74814 105.91563 114.25792 121.75792 130.10022 135.65198 138.72083 146.22083 150.38831 158.73061 167.07289 174.57289 177.90541 185.40541">Running on the user’s device</tspan><tspan
             id="tspan30"
             y="36"
             x="14.6777 22.1777 30.519995 38.862289 47.204586 51.37207 58.87207 62.204586 70.546883 78.046883 82.214363 85.546883 93.889175">code ﬁles in </tspan></text>
<text
           id="text32"
           style="font-variant:normal;font-weight:normal;font-size:15px;font-family:'Courier New';-inkscape-font-specification:Courier;writing-mode:lr-tb;fill:#000000;fill-opacity:1;fill-rule:nonzero;stroke:none"
           transform="matrix(1,0,0,-1,291.1823,662.5)"><tspan
             id="tspan34"
             y="0"
             x="0 9.0014648 18.00293 27.004395 36.005859 45.007324 54.008789 63.010254 72.011719 81.013184">frontend/ </tspan></text>
</g><path
         id="path36"
         style="fill:#ddd8ff;fill-opacity:1;fill-rule:nonzero;stroke:none"
         d="m 2567.2,5501.83 c -480.01,53.17 -288.59,500.8 477.13,424.42 71.04,148.89 961.48,124.72 955.66,0 558.33,159.52 1271.84,-158.56 793.25,-318.08 574.28,-77.33 -7.24,-494.03 -478.55,-424.42 -37.72,-116.02 -880.28,-156.62 -954.23,0 -477.1,-167.26 -1471.94,89.91 -793.26,318.08 z" /><path
         id="path38"
         style="fill:none;stroke:#000000;stroke-width:10;stroke-linecap:round;stroke-linejoin:round;stroke-miterlimit:10;stroke-dasharray:none;stroke-opacity:1"
         d="m 2565,5495 c -477.81,60 -286.39,507.63 479.33,431.25 71.04,148.89 961.48,124.72 955.66,0 558.33,159.52 1271.84,-158.56 793.25,-318.08 574.28,-77.33 -7.24,-494.03 -478.55,-424.42 -37.72,-116.02 -880.28,-156.62 -954.23,0 C 2883.36,5016.49 1888.52,5273.66 2565,5495 Z" /><g
         transform="scale(10,10)"
         id="g40"><text
           id="text42"
           style="font-variant:normal;font-weight:bold;font-size:14px;font-family:Helvetica;-inkscape-font-specification:Helvetica-Bold;writing-mode:lr-tb;fill:#000000;fill-opacity:1;fill-rule:nonzero;stroke:none"
           transform="matrix(1,0,0,-1,293.109,578.5)"><tspan
             id="tspan44"
             y="0"
             x="0 7.7861242 17.124125 28.013781 38.124123 42.013779 52.124123 60.675877 69.227631 78.319443 82.209099 89.995224 95.443474 103.2296 111.78135 119.5675 128.11925 136.67101 142.11925">JSON HTTP Transport</tspan></text>
<text
           id="text46"
           style="font-variant:normal;font-weight:normal;font-size:14px;font-family:Helvetica;-inkscape-font-specification:Helvetica;writing-mode:lr-tb;fill:#000000;fill-opacity:1;fill-rule:nonzero;stroke:none"
           transform="matrix(1,0,0,-1,287.14142,561.5)"><tspan
             id="tspan48"
             y="0"
             x="0 4.6620002 14.772344 18.662001 22.551657 30.33778 37.33778 45.123905 52.910027 57.572029 69.234032 77.020149 84.806274 87.916618 95.702744 99.5924 106.5924 110.48206 115.14406 122.93021 129.93021 133.81985 141.606 146.26801 154.05415">(w/ hypermedia structure)</tspan></text>
<text
           id="text50"
           style="font-variant:normal;font-weight:normal;font-size:12px;font-family:Helvetica;-inkscape-font-specification:Helvetica;writing-mode:lr-tb;fill:#000000;fill-opacity:1;fill-rule:nonzero;stroke:none"
           transform="matrix(1,0,0,-1,269.45392,547.5)"><tspan
             id="tspan52"
             y="0"
             x="0 8.6660261 15.339857 21.339857 28.013689 38.009689 44.683521 51.357349 54.691322 61.365154 64.699127 67.365158 74.038986 80.712814 84.046791 90.720619 94.054596 97.388573 101.38457 108.0584 114.0584 120.73223 127.40606 131.40207 137.40207 144.07587 147.40987 150.74387 157.41768 161.41367 171.40967 178.08348 181.41748 184.75148 187.41748">Documentation of resource format in</tspan></text>
<text
           id="text54"
           style="font-variant:normal;font-weight:normal;font-size:10px;font-family:'Courier New';-inkscape-font-specification:Courier;writing-mode:lr-tb;fill:#000000;fill-opacity:1;fill-rule:nonzero;stroke:none"
           transform="matrix(1,0,0,-1,342.49092,534.5)"><tspan
             id="tspan56"
             y="0"
             x="0 6.0058594 12.006836 18.00293 24.008789 30.009766 36.010742 42.011719">API_DOC/</tspan></text>
</g><path
         id="path58"
         style="fill:#b5ddb0;fill-opacity:1;fill-rule:nonzero;stroke:none"
         d="m 110,2090 2700,0 0,2700 -2700,0 0,-2700 z" /><path
         id="path60"
         style="fill:none;stroke:#000000;stroke-width:10;stroke-linecap:round;stroke-linejoin:round;stroke-miterlimit:10;stroke-dasharray:none;stroke-opacity:1"
         d="m 115,2085 2700,0 0,2700 -2700,0 0,-2700 z" /><g
         transform="scale(10,10)"
         id="g62"><text
           id="text64"
           style="font-variant:normal;font-weight:bold;font-size:15px;font-family:Helvetica;-inkscape-font-specification:Helvetica-Bold;writing-mode:lr-tb;fill:#000000;fill-opacity:1;fill-rule:nonzero;stroke:none"
           transform="matrix(1,0,0,-1,100.136,459.5)"><tspan
             id="tspan66"
             y="0"
             x="0 10.832515 19.174797 27.51708 35.859364 40.854362 45.021847 55.026848 63.369129 69.206535 77.54882 85.891098">Asset Server</tspan></text>
<text
           id="text68"
           style="font-variant:normal;font-weight:normal;font-size:15px;font-family:Helvetica;-inkscape-font-specification:Helvetica;writing-mode:lr-tb;fill:#000000;fill-opacity:1;fill-rule:nonzero;stroke:none"
           transform="matrix(1,0,0,-1,29.2778,441.5)"><tspan
             id="tspan70"
             y="0"
             x="0 10.83252 19.174807 26.674807 35.01709 43.359371 51.701656 59.201656 62.534176 70.876457 74.208969 82.551254 86.718742 90.886223 99.228508 104.22351 108.39099 115.89099 124.23328 129.22827 136.72827 140.06079 148.40308 156.74536 160.91284 164.24536 172.58765 180.92993 189.27223 196.77223 200.93971 209.28201 213.44949 225.94449 229.27701">Responsible for serving index.html,</tspan><tspan
             id="tspan72"
             y="18"
             x="-3.75 3.75 12.092286 20.434572 25.429571 29.597052 37.09705 45.439335 57.934334 66.276619 69.609138 72.941658 81.283943 89.626221 93.793709 101.29371 109.63599 117.13599 125.47827 135.48328 142.98328 147.97827 151.31079 159.65308 163.82056 167.98804 177.99304 186.33534 194.67763 203.01993 206.35245 214.69473 219.68974 227.18974 237.19473">your compiled JavaScript/AngularJS </tspan><tspan
             id="tspan74"
             y="36"
             x="-6.6796899 1.6625957 10.004882 18.347168 21.679688 25.012209 32.512207 40.854492 45.021973 48.354492 56.696774 65.039055 69.206535 73.374023 81.716301 90.058586 98.400871 102.56835 110.91064 119.25292 126.75292 130.92041 138.42041 142.58789 150.93018 155.09766 158.43018 165.93018 170.09766 178.43996 185.93996 193.43996 201.78224 205.94974 213.44974 217.61722 220.94974 224.28224 231.78224 240.12454">application, and any static assets like </tspan><tspan
             id="tspan76"
             y="54"
             x="42.938309 46.270832 58.765831 67.108116 75.450394 83.792679 91.292679 95.460167 103.80244 112.14473 120.48701 124.6545 135.48701 145.49202 155.49701 159.66451 167.16451 170.49701 178.83931 186.33931">images and CSS ﬁles.</tspan></text>
<text
           id="text78"
           style="font-variant:normal;font-weight:normal;font-size:14px;font-family:Helvetica;-inkscape-font-specification:Helvetica;writing-mode:lr-tb;fill:#000000;fill-opacity:1;fill-rule:nonzero;stroke:none"
           transform="matrix(1,0,0,-1,86.06261,352.5)"><tspan
             id="tspan80"
             y="0"
             x="0 7.78613 12.44813 20.234266 28.020403 35.806538 42.806538 46.696182 49.806538 57.592674 65.378815 69.268456 72.392471 81.730476 89.516609 97.30275 104.30275 112.08888">production: Apache</tspan><tspan
             id="tspan82"
             y="17"
             x="-9.19102 -1.4048898 6.3812404 13.38124 21.167376 24.277733 32.063869 39.850006 51.512005 59.298141 67.084274 70.973923 74.863564 78.753212 91.720978 99.507118 107.29325 111.95525 115.06561 122.06561">development: Webrick</tspan></text>
<text
           id="text84"
           style="font-variant:normal;font-weight:normal;font-size:13px;font-family:Helvetica;-inkscape-font-specification:Helvetica;writing-mode:lr-tb;fill:#000000;fill-opacity:1;fill-rule:nonzero;stroke:none"
           transform="matrix(1,0,0,-1,71.21846,303.5)"><tspan
             id="tspan86"
             y="0"
             x="0 2.888185 10.118162 13.729978 20.959955 25.288956 32.518932 39.748909 46.978889 53.478889 57.090702 59.978889 67.208862 74.438843 78.050659 81.662476 88.162476 95.392448 99.721451 106.22145 113.45143 119.95143 123.56324 127.17506 131.50406 138.73404 149.56303">in production, serves from </tspan></text>
<text
           id="text88"
           style="font-variant:normal;font-weight:normal;font-size:11px;font-family:'Courier New';-inkscape-font-specification:Courier;writing-mode:lr-tb;fill:#000000;fill-opacity:1;fill-rule:nonzero;stroke:none"
           transform="matrix(1,0,0,-1,63.48646,290.5)"><tspan
             id="tspan90"
             y="0"
             x="0 6.6010742 13.202148 19.803223 26.404297 33.005371 39.606445 46.20752 52.803223 59.409668 66.010742 72.611816 79.212891 85.813965 92.415039 99.016113 105.61719 112.21826 118.81934 125.42041 132.02148 138.62256 145.22363 151.82471 158.42041">https://myapplication.com</tspan></text>
<text
           id="text92"
           style="font-variant:normal;font-weight:normal;font-size:13px;font-family:Helvetica;-inkscape-font-specification:Helvetica;writing-mode:lr-tb;fill:#000000;fill-opacity:1;fill-rule:nonzero;stroke:none"
           transform="matrix(1,0,0,-1,91.57166,261.5)"><tspan
             id="tspan94"
             y="0"
             x="0 2.888185 10.118162 13.729978 20.959955 28.189932 33.731438 37.34325 40.955067 47.455067 54.685043 59.014042 65.514046 72.744019 79.244019 82.855835 86.467651 90.796654 98.026627">in dev, serves from</tspan></text>
<text
           id="text96"
           style="font-variant:normal;font-weight:normal;font-size:11px;font-family:'Courier New';-inkscape-font-specification:Courier;writing-mode:lr-tb;fill:#000000;fill-opacity:1;fill-rule:nonzero;stroke:none"
           transform="matrix(1,0,0,-1,79.989134,248.5)"><tspan
             id="tspan98"
             y="0"
             x="0 6.6010742 13.202148 19.803223 26.404297 33.005371 39.606445 46.20752 52.808594 59.409668 66.010742 72.611816 79.212891 85.813965 92.415039 99.016113 105.61719 112.21826 118.81934 125.42041 132.02148">http://localhost:9292</tspan></text>
</g><path
         id="path100"
         style="fill:none;stroke:#000000;stroke-width:10;stroke-linecap:round;stroke-linejoin:round;stroke-miterlimit:10;stroke-dasharray:none;stroke-opacity:1"
         d="m 1465,4790 0,810 645,650" /><path
         id="path102"
         style="fill:#000000;fill-opacity:1;fill-rule:nonzero;stroke:none"
         d="m 2166.57,6306.57 -77.78,-35.36 42.42,-42.42 35.36,77.78 z" /><path
         id="path104"
         style="fill:none;stroke:#000000;stroke-width:10;stroke-linecap:butt;stroke-linejoin:miter;stroke-miterlimit:10;stroke-dasharray:none;stroke-opacity:1"
         d="m 2166.57,6306.57 -77.78,-35.36 42.42,-42.42 35.36,77.78 z" /><path
         id="path106"
         style="fill:#b5ddb0;fill-opacity:1;fill-rule:nonzero;stroke:none"
         d="m 3260,2090 2700,0 0,2700 -2700,0 0,-2700 z" /><path
         id="path108"
         style="fill:none;stroke:#000000;stroke-width:10;stroke-linecap:round;stroke-linejoin:round;stroke-miterlimit:10;stroke-dasharray:none;stroke-opacity:1"
         d="m 3265,2085 2700,0 0,2700 -2700,0 0,-2700 z" /><g
         transform="scale(10,10)"
         id="g110"><text
           id="text112"
           style="font-variant:normal;font-weight:bold;font-size:15px;font-family:Helvetica;-inkscape-font-specification:Helvetica-Bold;writing-mode:lr-tb;fill:#000000;fill-opacity:1;fill-rule:nonzero;stroke:none"
           transform="matrix(1,0,0,-1,385.546,441.5)"><tspan
             id="tspan114"
             y="0"
             x="0 10.832515 20.837515 25.004976 29.165112 33.339897 37.507359 48.339897 56.682194 65.02449 73.366783 81.709076 90.871681 100.03429 104.20175 114.20676 122.54905 128.38644 136.72873 145.07103">API / Backend Server</tspan></text>
<text
           id="text116"
           style="font-variant:normal;font-weight:normal;font-size:15px;font-family:Helvetica;-inkscape-font-specification:Helvetica;writing-mode:lr-tb;fill:#000000;fill-opacity:1;fill-rule:nonzero;stroke:none"
           transform="matrix(1,0,0,-1,337.1913,423.5)"><tspan
             id="tspan118"
             y="0"
             x="0 10.832515 19.17481 26.67481 35.017105 43.359398 51.701694 59.201694 62.53421 70.876503 74.209045 82.551338 86.718796 90.886261 99.228554 104.22356 108.39101 115.89101 124.23331 129.22832 136.72832 140.06085 148.40314 156.74544 160.9129 169.25519 172.58774 175.92027 180.08774 187.58774 197.59273 209.26019 220.09273 223.43988 233.44489 243.44987 247.61734">Responsible for serving all JSON API </tspan><tspan
             id="tspan120"
             y="18"
             x="40.429699 45.424702 53.766994 61.266994 69.609291 77.951584 82.946587 90.446587 98.788879 106.28888 110.45634 114.6238 122.96609 127.13356 131.30103 139.64331 147.98561 152.15308 156.32053 161.31554 169.65782 178.00012 182.16759 190.50987 198.85217 203.01964">resources to the fronted..</tspan></text>
<text
           id="text122"
           style="font-variant:normal;font-weight:normal;font-size:14px;font-family:Helvetica;-inkscape-font-specification:Helvetica;writing-mode:lr-tb;fill:#000000;fill-opacity:1;fill-rule:nonzero;stroke:none"
           transform="matrix(1,0,0,-1,401.0624,370.5)"><tspan
             id="tspan124"
             y="0"
             x="0 7.7861242 12.448124 20.234272 28.02042 35.806568 42.806568 46.696224 49.806568 57.592716 65.378868 69.268524 72.392555 81.730553 89.516701 97.302849 104.30285 112.089">production: Apache</tspan><tspan
             id="tspan126"
             y="17"
             x="-9.19102 -1.404896 6.381228 13.381228 21.167376 24.277719 32.063869 39.850018 51.512016 59.298164 67.084312 70.973969 74.863625 78.753281 91.721039 99.507187 107.29333 111.95534 115.06568 122.06568">development: Webrick</tspan></text>
<text
           id="text128"
           style="font-variant:normal;font-weight:normal;font-size:13px;font-family:Helvetica;-inkscape-font-specification:Helvetica;writing-mode:lr-tb;fill:#000000;fill-opacity:1;fill-rule:nonzero;stroke:none"
           transform="matrix(1,0,0,-1,386.21825,321.5)"><tspan
             id="tspan130"
             y="0"
             x="0 2.8881729 10.118151 13.729978 20.959955 25.288956 32.518955 39.748959 46.978962 53.478962 57.090763 59.978962 67.208961 74.438965 78.050766 81.662567 88.162567 95.39257 99.721573 106.22157 113.45158 119.95158 123.56338 127.17518 131.50418 138.73418 149.56319">in production, serves from </tspan></text>
<text
           id="text132"
           style="font-variant:normal;font-weight:normal;font-size:11px;font-family:'Courier New';-inkscape-font-specification:Courier;writing-mode:lr-tb;fill:#000000;fill-opacity:1;fill-rule:nonzero;stroke:none"
           transform="matrix(1,0,0,-1,365.28425,308.5)"><tspan
             id="tspan134"
             y="0"
             x="0 6.6010742 13.202148 19.803223 26.404297 33.005371 39.606445 46.20752 52.808594 59.409668 66.010742 72.611816 79.20752 85.813965 92.415039 99.016113 105.61719 112.21826 118.81934 125.42041 132.02148 138.62256 145.22363 151.82471 158.42578 165.02686 171.62793 178.229 184.82471">https://api.myapplication.com</tspan></text>
<text
           id="text136"
           style="font-variant:normal;font-weight:normal;font-size:13px;font-family:Helvetica;-inkscape-font-specification:Helvetica;writing-mode:lr-tb;fill:#000000;fill-opacity:1;fill-rule:nonzero;stroke:none"
           transform="matrix(1,0,0,-1,406.57175,279.5)"><tspan
             id="tspan138"
             y="0"
             x="0 2.8881729 10.118175 13.729978 20.95998 28.189981 33.731483 37.343288 40.95509 47.45509 54.685093 59.014091 65.514091 72.744095 79.244095 82.855896 86.467697 90.7967 98.026703">in dev, serves from</tspan></text>
<text
           id="text140"
           style="font-variant:normal;font-weight:normal;font-size:11px;font-family:'Courier New';-inkscape-font-specification:Courier;writing-mode:lr-tb;fill:#000000;fill-opacity:1;fill-rule:nonzero;stroke:none"
           transform="matrix(1,0,0,-1,394.98922,266.5)"><tspan
             id="tspan142"
             y="0"
             x="0 6.6010742 13.202148 19.803223 26.404297 33.005371 39.606445 46.20752 52.808594 59.409668 66.010742 72.611816 79.212891 85.813965 92.415039 99.016113 105.61719 112.21826 118.81934 125.42041 132.02148">http://localhost:3000</tspan></text>
</g><path
         id="path144"
         style="fill:none;stroke:#000000;stroke-width:10;stroke-linecap:round;stroke-linejoin:round;stroke-miterlimit:10;stroke-dasharray:none;stroke-opacity:1"
         d="m 3966.42,4880.39 -49.79,111.44" /><path
         id="path146"
         style="fill:#000000;fill-opacity:1;fill-rule:nonzero;stroke:none"
         d="m 3883.99,5064.88 5.25,-85.29 54.78,24.48 -60.03,60.81 z" /><path
         id="path148"
         style="fill:none;stroke:#000000;stroke-width:10;stroke-linecap:butt;stroke-linejoin:miter;stroke-miterlimit:10;stroke-dasharray:none;stroke-opacity:1"
         d="m 3883.99,5064.88 5.25,-85.29 54.78,24.48 -60.03,60.81 z" /><path
         id="path150"
         style="fill:#000000;fill-opacity:1;fill-rule:nonzero;stroke:none"
         d="m 3999.06,4807.35 -5.25,85.28 -54.78,-24.48 60.03,-60.8 z" /><path
         id="path152"
         style="fill:none;stroke:#000000;stroke-width:10;stroke-linecap:butt;stroke-linejoin:miter;stroke-miterlimit:10;stroke-dasharray:none;stroke-opacity:1"
         d="m 3999.06,4807.35 -5.25,85.28 -54.78,-24.48 60.03,-60.8 z" /><path
         id="path154"
         style="fill:none;stroke:#000000;stroke-width:10;stroke-linecap:round;stroke-linejoin:round;stroke-miterlimit:10;stroke-dasharray:none;stroke-opacity:1"
         d="m 3376.56,6114.91 -60.31,117.08" /><path
         id="path156"
         style="fill:#000000;fill-opacity:1;fill-rule:nonzero;stroke:none"
         d="m 3279.61,6303.11 9.97,-84.86 53.34,27.48 -63.31,57.38 z" /><path
         id="path158"
         style="fill:none;stroke:#000000;stroke-width:10;stroke-linecap:butt;stroke-linejoin:miter;stroke-miterlimit:10;stroke-dasharray:none;stroke-opacity:1"
         d="m 3279.61,6303.11 9.97,-84.86 53.34,27.48 -63.31,57.38 z" /><path
         id="path160"
         style="fill:#000000;fill-opacity:1;fill-rule:nonzero;stroke:none"
         d="m 3413.2,6043.79 -9.97,84.86 -53.34,-27.48 63.31,-57.38 z" /><path
         id="path162"
         style="fill:none;stroke:#000000;stroke-width:10;stroke-linecap:butt;stroke-linejoin:miter;stroke-miterlimit:10;stroke-dasharray:none;stroke-opacity:1"
         d="m 3413.2,6043.79 -9.97,84.86 -53.34,-27.48 63.31,-57.38 z" /><path
         id="path164"
         style="fill:#e5d873;fill-opacity:1;fill-rule:nonzero;stroke:none"
         d="m 110,227 0,936 c 0,64.59 604.801,117 1350,117 745.2,0 1350,-52.41 1350,-117 l 0,-936 C 2810,162.414 2205.2,110 1460,110 714.801,110 110,162.414 110,227" /><path
         id="path166"
         style="fill:none;stroke:#000000;stroke-width:10;stroke-linecap:round;stroke-linejoin:round;stroke-miterlimit:10;stroke-dasharray:none;stroke-opacity:1"
         d="m 115,227 0,936 c -5,64.59 599.801,117 1345,117 745.2,0 1350,-52.41 1355,-117 l 0,-936 C 2810,162.418 2205.2,110 1460,110 714.801,110 110,162.418 110,227 m 0,936 c 0,-64.58 604.801,-117 1350,-117 745.2,0 1350,52.42 1350,117" /><g
         transform="scale(10,10)"
         id="g168"><text
           id="text170"
           style="font-variant:normal;font-weight:bold;font-size:15px;font-family:Helvetica;-inkscape-font-specification:Helvetica-Bold;writing-mode:lr-tb;fill:#000000;fill-opacity:1;fill-rule:nonzero;stroke:none"
           transform="matrix(1,0,0,-1,70.1395,66.65)"><tspan
             id="tspan172"
             y="0"
             x="0 10.005 18.347282 24.184687 32.52697 36.694454 45.036739 50.031738 58.37402 67.536613 72.531616 76.699104 87.531616 95.873901 100.8689 109.21118 113.37867 123.38367 128.37866 137.54128 143.37866">Persistent Data Store</tspan></text>
<text
           id="text174"
           style="font-variant:normal;font-weight:normal;font-size:15px;font-family:Helvetica;-inkscape-font-specification:Helvetica;writing-mode:lr-tb;fill:#000000;fill-opacity:1;fill-rule:nonzero;stroke:none"
           transform="matrix(1,0,0,-1,65.81802,48.65)"><tspan
             id="tspan176"
             y="0"
             x="0 4.9949999 15 23.342283 30.842283 35.009762 43.352043 48.347046 56.689327 66.694328 78.361816 86.154778 90.322266 98.664551 106.16455 110.33203 118.67432 127.0166 131.18408 139.52638 147.86867 151.20119 155.36867">(PostgreSQL by default)</tspan></text>
</g><path
         id="path178"
         style="fill:#e5d873;fill-opacity:1;fill-rule:nonzero;stroke:none"
         d="m 3260,182 0,576 c 0,39.742 604.8,72 1350,72 745.2,0 1350,-32.258 1350,-72 l 0,-576 c 0,-39.742 -604.8,-72 -1350,-72 -745.2,0 -1350,32.258 -1350,72" /><path
         id="path180"
         style="fill:none;stroke:#000000;stroke-width:10;stroke-linecap:round;stroke-linejoin:round;stroke-miterlimit:10;stroke-dasharray:none;stroke-opacity:1"
         d="m 3265,182 0,576 c -5,39.746 599.8,72 1345,72 745.2,0 1350,-32.254 1355,-72 l 0,-576 c -5,-39.742 -609.8,-72 -1355,-72 -745.2,0 -1350,32.258 -1350,72 m 0,576 c 0,-39.742 604.8,-72 1350,-72 745.2,0 1350,32.258 1350,72" /><g
         transform="scale(10,10)"
         id="g182"><text
           id="text184"
           style="font-variant:normal;font-weight:bold;font-size:15px;font-family:Helvetica;-inkscape-font-specification:Helvetica-Bold;writing-mode:lr-tb;fill:#000000;fill-opacity:1;fill-rule:nonzero;stroke:none"
           transform="matrix(1,0,0,-1,383.898,46.4)"><tspan
             id="tspan186"
             y="0"
             x="0 4.1674852 13.330092 17.497578 29.992579 38.334873 51.672264 60.834873 66.672264 75.014557 79.182022 90.014557 98.356857 103.35185 111.69415 115.86161 125.86661 130.86162 140.02422 145.86162">In Memory Data Store</tspan></text>
<text
           id="text188"
           style="font-variant:normal;font-weight:normal;font-size:15px;font-family:Helvetica;-inkscape-font-specification:Helvetica;writing-mode:lr-tb;fill:#000000;fill-opacity:1;fill-rule:nonzero;stroke:none"
           transform="matrix(1,0,0,-1,402.223,28.4)"><tspan
             id="tspan190"
             y="0"
             x="0 4.9949999 15.827539 24.169834 32.512131 35.844669 43.344669 47.512131 55.854424 63.354424 67.521881 75.864182 84.206474 88.373932 96.716232 105.05853 108.39107 112.55853">(Redis by default)</tspan></text>
</g><path
         id="path192"
         style="fill:#b5ddb0;fill-opacity:1;fill-rule:nonzero;stroke:none"
         d="m 3260,1100 2700,0 0,720 -2700,0 0,-720 z" /><path
         id="path194"
         style="fill:none;stroke:#000000;stroke-width:10;stroke-linecap:round;stroke-linejoin:round;stroke-miterlimit:10;stroke-dasharray:none;stroke-opacity:1"
         d="m 3265,1095 2700,0 0,720 -2700,0 0,-720 z" /><g
         transform="scale(10,10)"
         id="g196"><text
           id="text198"
           style="font-variant:normal;font-weight:bold;font-size:15px;font-family:Helvetica;-inkscape-font-specification:Helvetica-Bold;writing-mode:lr-tb;fill:#000000;fill-opacity:1;fill-rule:nonzero;stroke:none"
           transform="matrix(1,0,0,-1,403.054,158)"><tspan
             id="tspan200"
             y="0"
             x="0 10.005 14.172461 23.335068 31.677362 40.019657 44.187119 53.349728 57.517189 67.522186 73.359581 82.522186 90.864479 99.206779 107.54907">Sidekiq Process</tspan></text>
<text
           id="text202"
           style="font-variant:normal;font-weight:normal;font-size:15px;font-family:Helvetica;-inkscape-font-specification:Helvetica;writing-mode:lr-tb;fill:#000000;fill-opacity:1;fill-rule:nonzero;stroke:none"
           transform="matrix(1,0,0,-1,349.2724,122)"><tspan
             id="tspan204"
             y="0"
             x="0 9.1626072 17.504902 22.499903 26.667387 35.009682 43.351978 46.684494 55.026787 62.526787 70.86908 79.21138 83.378838 91.72113 99.22113 106.72113 115.06343 122.56343 126.72356 130.06343 138.40572 146.74802 150.91548 159.25777 164.25278 172.59506 180.09506 188.43736 195.93736 203.43736 206.7699 215.1122">For delayed/async job processing</tspan></text>
</g><path
         id="path206"
         style="fill:none;stroke:#000000;stroke-width:10;stroke-linecap:round;stroke-linejoin:round;stroke-miterlimit:10;stroke-dasharray:none;stroke-opacity:1"
         d="m 4615,1991 0,-72" /><path
         id="path208"
         style="fill:#000000;fill-opacity:1;fill-rule:nonzero;stroke:none"
         d="m 4610,1839 30,80 -60,0 30,-80 z" /><path
         id="path210"
         style="fill:none;stroke:#000000;stroke-width:10;stroke-linecap:butt;stroke-linejoin:miter;stroke-miterlimit:10;stroke-dasharray:none;stroke-opacity:1"
         d="m 4610,1839 30,80 -60,0 30,-80 z" /><path
         id="path212"
         style="fill:#000000;fill-opacity:1;fill-rule:nonzero;stroke:none"
         d="m 4610,2071 -30,-80 60,0 -30,80 z" /><path
         id="path214"
         style="fill:none;stroke:#000000;stroke-width:10;stroke-linecap:butt;stroke-linejoin:miter;stroke-miterlimit:10;stroke-dasharray:none;stroke-opacity:1"
         d="m 4610,2071 -30,-80 60,0 -30,80 z" /><path
         id="path216"
         style="fill:none;stroke:#000000;stroke-width:10;stroke-linecap:round;stroke-linejoin:round;stroke-miterlimit:10;stroke-dasharray:none;stroke-opacity:1"
         d="m 4615,1001 0,-72" /><path
         id="path218"
         style="fill:#000000;fill-opacity:1;fill-rule:nonzero;stroke:none"
         d="m 4610,849 30,80 -60,0 30,-80 z" /><path
         id="path220"
         style="fill:none;stroke:#000000;stroke-width:10;stroke-linecap:butt;stroke-linejoin:miter;stroke-miterlimit:10;stroke-dasharray:none;stroke-opacity:1"
         d="m 4610,849 30,80 -60,0 30,-80 z" /><path
         id="path222"
         style="fill:#000000;fill-opacity:1;fill-rule:nonzero;stroke:none"
         d="m 4610,1081 -30,-80 60,0 -30,80 z" /><path
         id="path224"
         style="fill:none;stroke:#000000;stroke-width:10;stroke-linecap:butt;stroke-linejoin:miter;stroke-miterlimit:10;stroke-dasharray:none;stroke-opacity:1"
         d="m 4610,1081 -30,-80 60,0 -30,80 z" /><path
         id="path226"
         style="fill:none;stroke:#000000;stroke-width:10;stroke-linecap:round;stroke-linejoin:round;stroke-miterlimit:10;stroke-dasharray:none;stroke-opacity:1"
         d="M 3185.36,2198.53 2189.13,1330.38" /><path
         id="path228"
         style="fill:#000000;fill-opacity:1;fill-rule:nonzero;stroke:none"
         d="m 2128.81,1277.82 80.03,29.95 -39.42,45.23 -40.61,-75.18 z" /><path
         id="path230"
         style="fill:none;stroke:#000000;stroke-width:10;stroke-linecap:butt;stroke-linejoin:miter;stroke-miterlimit:10;stroke-dasharray:none;stroke-opacity:1"
         d="m 2128.81,1277.82 80.03,29.95 -39.42,45.23 -40.61,-75.18 z" /><path
         id="path232"
         style="fill:#000000;fill-opacity:1;fill-rule:nonzero;stroke:none"
         d="m 3245.68,2251.09 -80.03,-29.94 39.42,-45.24 40.61,75.18 z" /><path
         id="path234"
         style="fill:none;stroke:#000000;stroke-width:10;stroke-linecap:butt;stroke-linejoin:miter;stroke-miterlimit:10;stroke-dasharray:none;stroke-opacity:1"
         d="m 3245.68,2251.09 -80.03,-29.94 39.42,-45.24 40.61,75.18 z" /><path
         id="path236"
         style="fill:none;stroke:#000000;stroke-width:10;stroke-linecap:round;stroke-linejoin:round;stroke-miterlimit:10;stroke-dasharray:none;stroke-opacity:1"
         d="m 3163.8,1108.78 -257.6,-62.56" /><path
         id="path238"
         style="fill:#000000;fill-opacity:1;fill-rule:nonzero;stroke:none"
         d="m 2828.46,1027.34 84.83,-10.27 -14.16,58.31 -70.67,-48.04 z" /><path
         id="path240"
         style="fill:none;stroke:#000000;stroke-width:10;stroke-linecap:butt;stroke-linejoin:miter;stroke-miterlimit:10;stroke-dasharray:none;stroke-opacity:1"
         d="m 2828.46,1027.34 84.83,-10.27 -14.16,58.31 -70.67,-48.04 z" /><path
         id="path242"
         style="fill:#000000;fill-opacity:1;fill-rule:nonzero;stroke:none"
         d="m 3241.54,1127.66 -84.83,10.27 14.17,-58.3 70.66,48.03 z" /><path
         id="path244"
         style="fill:none;stroke:#000000;stroke-width:10;stroke-linecap:butt;stroke-linejoin:miter;stroke-miterlimit:10;stroke-dasharray:none;stroke-opacity:1"
         d="m 3241.54,1127.66 -84.82,10.27 14.16,-58.3 70.66,48.03 z" /></g></g></svg>